<?xml version="1.0" encoding="utf-8"?>
<!-- Generator: Adobe Illustrator 22.0.1, SVG Export Plug-In . SVG Version: 6.00 Build 0)  -->
<svg version="1.1" id="NM" xmlns="http://www.w3.org/2000/svg" xmlns:xlink="http://www.w3.org/1999/xlink" x="0px" y="0px"
	 viewBox="0 0 512 297.3" style="enable-background:new 0 0 512 297.3;" xml:space="preserve">
<style type="text/css">
	.st0{fill:#184353;}
	.st1{fill:#FFFFFF;}
</style>
<path class="st0" d="M498.9,1H13.1C6,1,0.3,6.8,0.3,13.8v271.6c0,7,5.8,12.8,12.8,12.8h485.9c7,0,12.8-5.8,12.8-12.8V13.8
	C511.7,6.8,506,1,498.9,1z"/>
<g>
	<polygon class="st1" points="94.7,185.9 85.3,195.4 40.5,150.6 85.3,105.8 94.7,115.3 59.4,150.6 	"/>
	
		<rect x="72.4" y="143.9" transform="matrix(0.1843 -0.9829 0.9829 0.1843 -44.6282 247.381)" class="st1" width="108.6" height="13.3"/>
	<polygon class="st1" points="161.5,195.4 152,185.9 187.4,150.6 152,115.3 161.5,105.8 206.2,150.6 	"/>
</g>
<g>
	<path class="st1" d="M328.1,215.9h-19.5l-47.3-82.3l-11.4-21.8c0.1,1.2,0.2,2.3,0.2,3.5c0.7,10.2,1.5,20.8,1.5,31.2v69.3h-18.8
		V83.3h19.5l47.3,82.2l11.4,21.8c-0.1-0.9-0.1-1.9-0.2-2.8c-0.7-10.8-1.5-22-1.5-32.6V83.3h18.8V215.9z"/>
	<path class="st1" d="M471.5,215.9h-18.5v-72.9c0-8.5,0.7-19.4,1.4-29.1l-7.3,20.9l-24.8,68h-13.2l-24.9-68L377,114
		c0.7,9.7,1.4,20.6,1.4,29.1v72.9h-18.1V83.3h22.6l25.2,70.2c1.7,4.9,3.5,10,5.1,15c1,2.9,2,5.8,3,8.7c1.1-3.2,2.1-6.4,3.1-9.6
		c1.5-4.7,3.1-9.5,4.7-14.2l24.9-70.2h22.6V215.9z"/>
</g>
</svg>
