<svg id="NM" xmlns="http://www.w3.org/2000/svg" viewBox="0 0 479.21 479.21"><defs><style>.cls-1{fill:#184353;}.cls-2{fill:#fff;}</style></defs><rect class="cls-1" width="479.21" height="479.21" rx="12"/><path class="cls-2" d="M215.76,322.19,168.54,240.1l-11.37-21.73c.09,1.17.17,2.34.25,3.52.72,10.19,1.46,20.72,1.46,31.1v69.2H140.07V189.81h19.5l47.22,82,11.36,21.79c-.06-.93-.12-1.86-.19-2.8-.74-10.78-1.51-21.92-1.51-32.55V189.81h18.81V322.19Z" transform="translate(-16.39 -15.79)"/><path class="cls-2" d="M359.82,322.19V249.46c0-8.47.72-19.4,1.42-29.07L354,241.25l-24.72,67.9H316.13l-24.84-67.88L284,220.41c.7,9.66,1.41,20.59,1.41,29.05v72.73H267.37V189.81h22.52L315,259.89c1.74,4.94,3.46,10,5.12,15q1.47,4.36,3,8.72c1.07-3.19,2.11-6.4,3.12-9.54,1.51-4.65,3.06-9.47,4.7-14.13l24.86-70.09H378.3V322.19Z" transform="translate(-16.39 -15.79)"/><polygon class="cls-2" points="402.58 285.34 447.25 240.67 402.58 196 393.17 205.42 428.42 240.67 393.17 275.92 402.58 285.34"/><polygon class="cls-2" points="76.63 194.9 31.96 239.57 76.63 284.24 86.05 274.82 50.79 239.57 86.05 204.31 76.63 194.9"/></svg>