<?xml version="1.0" standalone="no"?>
<!DOCTYPE svg PUBLIC "-//W3C//DTD SVG 20010904//EN"
 "http://www.w3.org/TR/2001/REC-SVG-20010904/DTD/svg10.dtd">
<svg version="1.0" xmlns="http://www.w3.org/2000/svg"
 width="1024.000000pt" height="1024.000000pt" viewBox="0 0 1024.000000 1024.000000"
 preserveAspectRatio="xMidYMid meet">
<metadata>
Created by potrace 1.11, written by Peter Selinger 2001-2013
</metadata>
<g transform="translate(0.000000,1024.000000) scale(0.100000,-0.100000)"
fill="#000000" stroke="none">
<path d="M194 10226 c-58 -26 -129 -121 -156 -211 -34 -111 -34 -97 -33 -4920
1 -3920 3 -4760 14 -4805 31 -127 103 -240 175 -274 31 -15 459 -16 4925 -16
4084 0 4897 2 4924 14 72 30 140 130 174 256 17 62 18 318 18 4835 0 2624 -3
4789 -7 4812 -20 121 -87 246 -157 294 l-36 24 -4905 2 c-4095 2 -4910 0
-4936 -11z"/>
</g>
</svg>
